<svg xmlns="http://www.w3.org/2000/svg" width="65" height="51">
    <defs>
        <linearGradient id="a" x1="0%" y1="0%" y2="0%">
            <stop offset="0%" stop-color="#00A651"/>
            <stop offset="100%" stop-color="#BDFFA3"/>
        </linearGradient>
    </defs>
    <path fill-rule="evenodd" d="M61.219 31.066a1.272 1.272 0 0 1-1.795 0 1.258 1.258 0 0 1 0-1.786 10.216 10.216 0 0 0 3.037-7.291c0-2.755-1.079-5.345-3.037-7.292a1.258 1.258 0 0 1 0-1.786 1.274 1.274 0 0 1 1.795 0A12.72 12.72 0 0 1 65 21.989c0 3.429-1.343 6.652-3.781 9.077zm-3.59-3.57c-.247.247-.572.37-.897.37-.325 0-.65-.123-.898-.37a1.26 1.26 0 0 1 0-1.786 5.212 5.212 0 0 0 1.551-3.721 5.214 5.214 0 0 0-1.551-3.722 1.26 1.26 0 0 1 0-1.786 1.275 1.275 0 0 1 1.796 0 7.716 7.716 0 0 1 2.293 5.508c0 2.08-.814 4.036-2.294 5.507zm-8.765 16.488c-.432 0-.867-.073-1.284-.222L18.894 33.529l5.169 13.882a2.655 2.655 0 0 1-.313 2.447A2.687 2.687 0 0 1 21.552 51H15.19a2.69 2.69 0 0 1-2.512-1.739L6.472 32.594h-.125c-3.5 0-6.347-2.832-6.347-6.312v-8.586c0-3.481 2.847-6.313 6.347-6.313h9.928l6.132-2.187a1.27 1.27 0 0 1 1.623.762 1.26 1.26 0 0 1-.766 1.614l-5.499 1.962v16.909l27.218 9.71V28.091c0-.697.569-1.262 1.27-1.262.701 0 1.27.565 1.27 1.262v12.968l.914.326a1.26 1.26 0 0 0 1.16-.156c.342-.24.539-.616.539-1.033V3.781c0-.417-.197-.793-.539-1.033a1.263 1.263 0 0 0-1.16-.156l-16.594 5.92a1.271 1.271 0 0 1-1.623-.762 1.26 1.26 0 0 1 .767-1.615L47.58.215a3.835 3.835 0 0 1 3.478.468 3.788 3.788 0 0 1 1.617 3.098v36.416a3.788 3.788 0 0 1-1.617 3.098 3.834 3.834 0 0 1-2.194.689zM15.226 13.908H6.347c-2.099 0-3.808 1.699-3.808 3.788v8.586c0 2.088 1.709 3.787 3.808 3.787h8.879V13.908zm.612 18.686H9.18l5.88 15.79c.02.054.072.09.13.09h6.362c.018 0 .073 0 .114-.059a.13.13 0 0 0 .016-.127l-5.844-15.694zm30.414-10.995a1.268 1.268 0 0 1 1.27 1.262 1.27 1.27 0 0 1-1.27 1.263 1.267 1.267 0 0 1-1.269-1.263 1.268 1.268 0 0 1 1.269-1.262zm-2.968-8.712a1.263 1.263 0 0 1-1.067-1.244c0-.698.569-1.263 1.27-1.263h2.844c.702 0 1.27.565 1.27 1.263v2.829c0 .697-.568 1.262-1.27 1.262-.632 0-1.155-.46-1.252-1.062l-9.92 9.866a1.274 1.274 0 0 1-1.795 0l-4.357-4.333-6.493 6.457a1.272 1.272 0 0 1-1.795 0 1.258 1.258 0 0 1 0-1.786l7.39-7.35a1.275 1.275 0 0 1 1.796 0l4.357 4.334 9.022-8.973zm-16.29-2.724c-.334 0-.662-.135-.898-.369a1.272 1.272 0 0 1-.372-.893 1.267 1.267 0 0 1 1.27-1.263 1.263 1.263 0 0 1 1.269 1.263c0 .332-.136.657-.372.893a1.284 1.284 0 0 1-.897.369z"/>
    <path fill="url(#a)" d="M61.219 31.066a1.272 1.272 0 0 1-1.795 0 1.258 1.258 0 0 1 0-1.786 10.216 10.216 0 0 0 3.037-7.291c0-2.755-1.079-5.345-3.037-7.292a1.258 1.258 0 0 1 0-1.786 1.274 1.274 0 0 1 1.795 0A12.72 12.72 0 0 1 65 21.989c0 3.429-1.343 6.652-3.781 9.077zm-3.59-3.57c-.247.247-.572.37-.897.37-.325 0-.65-.123-.898-.37a1.26 1.26 0 0 1 0-1.786 5.212 5.212 0 0 0 1.551-3.721 5.214 5.214 0 0 0-1.551-3.722 1.26 1.26 0 0 1 0-1.786 1.275 1.275 0 0 1 1.796 0 7.716 7.716 0 0 1 2.293 5.508c0 2.08-.814 4.036-2.294 5.507zm-8.765 16.488c-.432 0-.867-.073-1.284-.222L18.894 33.529l5.169 13.882a2.655 2.655 0 0 1-.313 2.447A2.687 2.687 0 0 1 21.552 51H15.19a2.69 2.69 0 0 1-2.512-1.739L6.472 32.594h-.125c-3.5 0-6.347-2.832-6.347-6.312v-8.586c0-3.481 2.847-6.313 6.347-6.313h9.928l6.132-2.187a1.27 1.27 0 0 1 1.623.762 1.26 1.26 0 0 1-.766 1.614l-5.499 1.962v16.909l27.218 9.71V28.091c0-.697.569-1.262 1.27-1.262.701 0 1.27.565 1.27 1.262v12.968l.914.326a1.26 1.26 0 0 0 1.16-.156c.342-.24.539-.616.539-1.033V3.781c0-.417-.197-.793-.539-1.033a1.263 1.263 0 0 0-1.16-.156l-16.594 5.92a1.271 1.271 0 0 1-1.623-.762 1.26 1.26 0 0 1 .767-1.615L47.58.215a3.835 3.835 0 0 1 3.478.468 3.788 3.788 0 0 1 1.617 3.098v36.416a3.788 3.788 0 0 1-1.617 3.098 3.834 3.834 0 0 1-2.194.689zM15.226 13.908H6.347c-2.099 0-3.808 1.699-3.808 3.788v8.586c0 2.088 1.709 3.787 3.808 3.787h8.879V13.908zm.612 18.686H9.18l5.88 15.79c.02.054.072.09.13.09h6.362c.018 0 .073 0 .114-.059a.13.13 0 0 0 .016-.127l-5.844-15.694zm30.414-10.995a1.268 1.268 0 0 1 1.27 1.262 1.27 1.27 0 0 1-1.27 1.263 1.267 1.267 0 0 1-1.269-1.263 1.268 1.268 0 0 1 1.269-1.262zm-2.968-8.712a1.263 1.263 0 0 1-1.067-1.244c0-.698.569-1.263 1.27-1.263h2.844c.702 0 1.27.565 1.27 1.263v2.829c0 .697-.568 1.262-1.27 1.262-.632 0-1.155-.46-1.252-1.062l-9.92 9.866a1.274 1.274 0 0 1-1.795 0l-4.357-4.333-6.493 6.457a1.272 1.272 0 0 1-1.795 0 1.258 1.258 0 0 1 0-1.786l7.39-7.35a1.275 1.275 0 0 1 1.796 0l4.357 4.334 9.022-8.973zm-16.29-2.724c-.334 0-.662-.135-.898-.369a1.272 1.272 0 0 1-.372-.893 1.267 1.267 0 0 1 1.27-1.263 1.263 1.263 0 0 1 1.269 1.263c0 .332-.136.657-.372.893a1.284 1.284 0 0 1-.897.369z"/>
</svg>
