<svg xmlns="http://www.w3.org/2000/svg" width="219" height="28">
    <text fill="#00A651" font-family="Montserrat" font-size="6" transform="matrix(4.87174 0 0 4.83333 0 24.167)">
        GeometryB x
    </text>
    <path fill="#009ADE" fill-rule="evenodd" d="M199.002 5.882a.636.636 0 0 0-.512-.618L187.272.045a.694.694 0 0 0-.578 0l-11.328 5.267a.634.634 0 0 0-.375.549V19.104c0 .243.143.465.375.571l11.328 5.266c.005 0 .005 0 .01.006.017.005.034.01.05.021.006 0 .011.005.022.005l.049.016c.007 0 .012.005.017.005.017.005.039.005.055.011h.017c.022 0 .049.005.071.005.022 0 .05 0 .072-.005h.016a.207.207 0 0 0 .055-.011c.006 0 .012-.005.017-.005l.049-.016c.006 0 .012-.005.023-.005a.207.207 0 0 0 .049-.021c.006 0 .006 0 .011-.006l11.362-5.282a.64.64 0 0 0 .374-.571V5.898c-.011-.005-.011-.01-.011-.016zM186.98 1.318l9.825 4.57-3.619 1.685-9.824-4.57 3.618-1.685zm0 9.139l-9.825-4.569 4.693-2.182 9.824 4.569-4.692 2.182zm-10.667-3.55l10.006 4.654v11.796l-10.006-4.654V6.907zm11.328 16.45V11.561l4.697-2.187v3.085c0 .349.298.634.661.634a.65.65 0 0 0 .661-.634V8.756l4.02-1.87v11.796l-10.039 4.675z"/>
</svg>
