<svg xmlns="http://www.w3.org/2000/svg" width="35" height="50">
    <defs>
        <linearGradient id="a" x1="0%" y1="0%" y2="0%">
            <stop offset="0%" stop-color="#8DC63F"/>
            <stop offset="100%" stop-color="#00A651"/>
        </linearGradient>
    </defs>
    <path fill="#009ADE" fill-rule="evenodd" d="M34.01 21.998c.547 0 .989.457.989 1.02 0 .564-.442 1.021-.989 1.021h-1.098c-.063.376-.157.74-.283 1.09l.952.567c.473.282.635.906.361 1.394a.973.973 0 0 1-1.352.373l-.952-.568a5.983 5.983 0 0 1-.771.796l.551.985c.273.489.11 1.113-.363 1.394a.974.974 0 0 1-1.352-.374l-.548-.981a5.75 5.75 0 0 1-1.053.29v1.135c0 .564-.444 1.021-.99 1.021s-.989-.457-.989-1.021v-1.135a5.739 5.739 0 0 1-1.054-.29l-.548.981a.974.974 0 0 1-1.352.374 1.038 1.038 0 0 1-.363-1.394l.551-.985a6.046 6.046 0 0 1-.771-.796l-.953.568a.972.972 0 0 1-1.351-.373 1.037 1.037 0 0 1 .361-1.394l.951-.567a6.272 6.272 0 0 1-.282-1.09h-1.098c-.546 0-.989-.457-.989-1.021 0-.563.443-1.02.989-1.02h1.098c.062-.376.157-.741.282-1.09l-.951-.568a1.037 1.037 0 0 1-.361-1.394.973.973 0 0 1 1.351-.372l.953.568c.233-.29.491-.556.771-.797l-.551-.985a1.039 1.039 0 0 1 .363-1.394.973.973 0 0 1 1.352.375l.548.981a5.66 5.66 0 0 1 1.054-.29v-1.136c0-.564.443-1.021.989-1.021s.99.457.99 1.021v1.136c.363.063.715.161 1.053.29l.548-.981a.973.973 0 0 1 1.352-.375c.473.282.636.906.363 1.394l-.551.985c.28.241.539.507.771.797l.952-.568a.974.974 0 0 1 1.352.372 1.037 1.037 0 0 1-.361 1.394l-.952.568c.126.349.22.714.283 1.09h1.098zm-6.898-3.013c-2.153 0-3.905 1.809-3.905 4.033 0 2.225 1.752 4.034 3.905 4.034 2.154 0 3.906-1.809 3.906-4.034 0-2.224-1.752-4.033-3.906-4.033zm-8.663 8.645c.539.096.9.624.807 1.181-.093.556-.605.929-1.143.833l-.666-.119c-.065.17-.139.333-.221.491l.52.447c.42.361.477 1.005.128 1.439a.97.97 0 0 1-1.394.131l-.522-.448a4.782 4.782 0 0 1-.426.311l.234.658a1.032 1.032 0 0 1-.586 1.312.981.981 0 0 1-1.271-.606l-.233-.655a4.754 4.754 0 0 1-.522.05l-.115.687c-.093.556-.605.93-1.143.834-.539-.096-.9-.624-.807-1.18l.115-.688a4.604 4.604 0 0 1-.475-.227l-.433.537a.969.969 0 0 1-1.394.132 1.045 1.045 0 0 1-.127-1.439l.435-.539a4.959 4.959 0 0 1-.302-.44l-.636.242a.98.98 0 0 1-1.271-.605 1.032 1.032 0 0 1 .587-1.312l.635-.241a5.323 5.323 0 0 1-.049-.538l-.665-.119c-.539-.095-.9-.624-.807-1.18.093-.556.605-.929 1.143-.833l.666.118c.065-.169.139-.332.221-.49l-.521-.447a1.046 1.046 0 0 1-.127-1.439.969.969 0 0 1 1.394-.132l.521.449c.137-.112.28-.216.427-.311l-.234-.658c-.189-.529.073-1.117.587-1.312a.98.98 0 0 1 1.27.605l.234.656c.171-.026.345-.044.521-.05l.115-.688c.093-.556.605-.929 1.143-.833.539.095.9.624.807 1.18l-.115.687c.164.068.322.144.475.228l.433-.537a.969.969 0 0 1 1.394-.132c.419.361.477 1.005.127 1.439l-.435.538c.108.141.209.288.301.44l.637-.242a.982.982 0 0 1 1.271.605c.189.53-.074 1.117-.587 1.312l-.635.242c.025.177.042.357.048.538l.666.118zm-4.989-2.813c-1.537-.273-3.003.796-3.268 2.383-.265 1.586.769 3.1 2.306 3.373 1.537.273 3.003-.796 3.268-2.383.266-1.587-.769-3.1-2.306-3.373zm13.652-11.726c-.546 0-.989-.457-.989-1.02V7.375H1.979V38.68h24.144v-4.544c0-.563.443-1.02.989-1.02.547 0 .99.457.99 1.02v14.843c0 .563-.443 1.02-.99 1.02H.989c-.546 0-.99-.457-.99-1.02V1.02c0-.564.444-1.021.99-1.021h26.123c.547 0 .99.457.99 1.021v11.051c0 .563-.443 1.02-.99 1.02zM1.979 47.958h24.144v-7.237H1.979v7.237zM26.123 2.04H1.979v3.295h24.144V2.04zM14.058 45.812c-.826 0-1.495-.692-1.495-1.544 0-.853.669-1.544 1.495-1.544.826 0 1.496.691 1.496 1.544 0 .852-.67 1.544-1.496 1.544z" opacity=".902"/>
    <path fill="url(#a)" d="M34.01 21.998c.547 0 .989.457.989 1.02 0 .564-.442 1.021-.989 1.021h-1.098c-.063.376-.157.74-.283 1.09l.952.567c.473.282.635.906.361 1.394a.973.973 0 0 1-1.352.373l-.952-.568a5.983 5.983 0 0 1-.771.796l.551.985c.273.489.11 1.113-.363 1.394a.974.974 0 0 1-1.352-.374l-.548-.981a5.75 5.75 0 0 1-1.053.29v1.135c0 .564-.444 1.021-.99 1.021s-.989-.457-.989-1.021v-1.135a5.739 5.739 0 0 1-1.054-.29l-.548.981a.974.974 0 0 1-1.352.374 1.038 1.038 0 0 1-.363-1.394l.551-.985a6.046 6.046 0 0 1-.771-.796l-.953.568a.972.972 0 0 1-1.351-.373 1.037 1.037 0 0 1 .361-1.394l.951-.567a6.272 6.272 0 0 1-.282-1.09h-1.098c-.546 0-.989-.457-.989-1.021 0-.563.443-1.02.989-1.02h1.098c.062-.376.157-.741.282-1.09l-.951-.568a1.037 1.037 0 0 1-.361-1.394.973.973 0 0 1 1.351-.372l.953.568c.233-.29.491-.556.771-.797l-.551-.985a1.039 1.039 0 0 1 .363-1.394.973.973 0 0 1 1.352.375l.548.981a5.66 5.66 0 0 1 1.054-.29v-1.136c0-.564.443-1.021.989-1.021s.99.457.99 1.021v1.136c.363.063.715.161 1.053.29l.548-.981a.973.973 0 0 1 1.352-.375c.473.282.636.906.363 1.394l-.551.985c.28.241.539.507.771.797l.952-.568a.974.974 0 0 1 1.352.372 1.037 1.037 0 0 1-.361 1.394l-.952.568c.126.349.22.714.283 1.09h1.098zm-6.898-3.013c-2.153 0-3.905 1.809-3.905 4.033 0 2.225 1.752 4.034 3.905 4.034 2.154 0 3.906-1.809 3.906-4.034 0-2.224-1.752-4.033-3.906-4.033zm-8.663 8.645c.539.096.9.624.807 1.181-.093.556-.605.929-1.143.833l-.666-.119c-.065.17-.139.333-.221.491l.52.447c.42.361.477 1.005.128 1.439a.97.97 0 0 1-1.394.131l-.522-.448a4.782 4.782 0 0 1-.426.311l.234.658a1.032 1.032 0 0 1-.586 1.312.981.981 0 0 1-1.271-.606l-.233-.655a4.754 4.754 0 0 1-.522.05l-.115.687c-.093.556-.605.93-1.143.834-.539-.096-.9-.624-.807-1.18l.115-.688a4.604 4.604 0 0 1-.475-.227l-.433.537a.969.969 0 0 1-1.394.132 1.045 1.045 0 0 1-.127-1.439l.435-.539a4.959 4.959 0 0 1-.302-.44l-.636.242a.98.98 0 0 1-1.271-.605 1.032 1.032 0 0 1 .587-1.312l.635-.241a5.323 5.323 0 0 1-.049-.538l-.665-.119c-.539-.095-.9-.624-.807-1.18.093-.556.605-.929 1.143-.833l.666.118c.065-.169.139-.332.221-.49l-.521-.447a1.046 1.046 0 0 1-.127-1.439.969.969 0 0 1 1.394-.132l.521.449c.137-.112.28-.216.427-.311l-.234-.658c-.189-.529.073-1.117.587-1.312a.98.98 0 0 1 1.27.605l.234.656c.171-.026.345-.044.521-.05l.115-.688c.093-.556.605-.929 1.143-.833.539.095.9.624.807 1.18l-.115.687c.164.068.322.144.475.228l.433-.537a.969.969 0 0 1 1.394-.132c.419.361.477 1.005.127 1.439l-.435.538c.108.141.209.288.301.44l.637-.242a.982.982 0 0 1 1.271.605c.189.53-.074 1.117-.587 1.312l-.635.242c.025.177.042.357.048.538l.666.118zm-4.989-2.813c-1.537-.273-3.003.796-3.268 2.383-.265 1.586.769 3.1 2.306 3.373 1.537.273 3.003-.796 3.268-2.383.266-1.587-.769-3.1-2.306-3.373zm13.652-11.726c-.546 0-.989-.457-.989-1.02V7.375H1.979V38.68h24.144v-4.544c0-.563.443-1.02.989-1.02.547 0 .99.457.99 1.02v14.843c0 .563-.443 1.02-.99 1.02H.989c-.546 0-.99-.457-.99-1.02V1.02c0-.564.444-1.021.99-1.021h26.123c.547 0 .99.457.99 1.021v11.051c0 .563-.443 1.02-.99 1.02zM1.979 47.958h24.144v-7.237H1.979v7.237zM26.123 2.04H1.979v3.295h24.144V2.04zM14.058 45.812c-.826 0-1.495-.692-1.495-1.544 0-.853.669-1.544 1.495-1.544.826 0 1.496.691 1.496 1.544 0 .852-.67 1.544-1.496 1.544z"/>
</svg>
