<svg xmlns="http://www.w3.org/2000/svg" width="32" height="51">
    <defs>
        <linearGradient id="a" x1="0%" y1="0%" y2="0%">
            <stop offset="0%" stop-color="#448CCB"/>
            <stop offset="100%" stop-color="#046B99"/>
        </linearGradient>
    </defs>
    <path fill="#FFF" fill-rule="evenodd" d="M29.599 50.126H2.4c-1.324 0-2.4-1.122-2.4-2.499V5.972c0-1.378 1.076-2.5 2.4-2.5h9.905l-1.022-2.126a.848.848 0 0 1 .358-1.117.785.785 0 0 1 1.073.372l1.38 2.871h3.905l2.16-2.998a.78.78 0 0 1 1.12-.166.853.853 0 0 1 .16 1.165l-1.44 1.999h9.6c1.324 0 2.401 1.122 2.401 2.5v41.655c0 1.377-1.077 2.499-2.401 2.499zm-15.2-40.822c0 .919.718 1.666 1.6 1.666.883 0 1.601-.747 1.601-1.666 0-.883-.666-1.601-1.501-1.655l.616 1.283a.85.85 0 0 1-.358 1.118.777.777 0 0 1-.357.087.796.796 0 0 1-.716-.461l-.619-1.288a1.706 1.706 0 0 0-.266.916zm16-3.332c0-.46-.358-.833-.8-.833H14.894l.437.909c.215-.049.439-.076.668-.076 1.765 0 3.2 1.494 3.2 3.332 0 1.838-1.435 3.332-3.2 3.332-1.764 0-3.2-1.494-3.2-3.332 0-1 .434-1.887 1.106-2.499l-.8-1.666H2.4c-.441 0-.8.373-.8.833v41.655c0 .459.359.833.8.833h27.199c.442 0 .8-.374.8-.833V5.972zM28.16 45.96c-.442 0-.8-.372-.8-.833 0-.46.358-.833.8-.833.441 0 .799.373.799.833 0 .461-.358.833-.799.833zm0-29.158c-.442 0-.8-.373-.8-.833 0-.46.358-.833.8-.833.441 0 .799.373.799.833 0 .46-.358.833-.799.833zm-3.184 18.899l-.668.924c-.016.025-.037.045-.055.069-.206.281-.425.55-.656.808-.043.047-.083.097-.125.142-.244.264-.499.516-.768.752-.029.026-.055.055-.084.08-.274.236-.56.456-.857.663-.153.106-.311.198-.467.296-.153.094-.304.19-.461.276a9.65 9.65 0 0 1-.538.27 9.48 9.48 0 0 1-1.543.583c-.172.049-.344.099-.52.139a9.241 9.241 0 0 1-.668.122c-.142.023-.284.052-.427.068a9.983 9.983 0 0 1-1.14.069 10.2 10.2 0 0 1-1.139-.068c-.144-.016-.285-.045-.427-.068-.225-.036-.449-.071-.669-.123-.176-.039-.347-.089-.52-.139a9.38 9.38 0 0 1-1.542-.582 9.647 9.647 0 0 1-.538-.27c-.157-.086-.308-.182-.46-.277-.157-.097-.316-.189-.468-.295a10.997 10.997 0 0 1-.857-.663c-.029-.026-.056-.055-.084-.08a10.481 10.481 0 0 1-.768-.752c-.044-.045-.084-.095-.125-.142-.232-.258-.45-.527-.656-.808-.018-.025-.038-.044-.056-.069l-.667-.924.061-.022A11.086 11.086 0 0 1 5.6 30.132c0-5.972 4.665-10.831 10.399-10.831 5.735 0 10.4 4.859 10.4 10.831 0 2.029-.548 3.923-1.484 5.547l.061.022zm-14.72 1.359c.038.036.074.073.113.107.125.11.259.208.391.31.107.083.21.172.32.25l.039.025a8.504 8.504 0 0 0 4.88 1.544c1.804 0 3.483-.57 4.879-1.543l.039-.025c.111-.078.214-.167.321-.25.131-.102.264-.2.39-.31.04-.034.075-.072.113-.106.189-.172.374-.347.55-.536l-4.645-1.612.773-.941c.511-.622.78-1.366.78-2.153v-3.354c0-1.838-1.435-3.333-3.2-3.333-1.764 0-3.2 1.495-3.2 3.333v3.354c0 .787.27 1.531.781 2.153l.772.94-4.645 1.613c.175.189.361.364.549.534zm5.743-16.092c-4.852 0-8.8 4.111-8.8 9.164 0 1.848.532 3.567 1.441 5.008l3.087-1.071a5.093 5.093 0 0 1-.528-2.249v-3.354c0-2.757 2.153-4.999 4.8-4.999 2.648 0 4.8 2.242 4.8 4.999v3.354c0 .78-.183 1.551-.528 2.249l3.089 1.071a9.377 9.377 0 0 0 1.439-5.008c0-5.053-3.947-9.164-8.8-9.164zm9.12-4.166c-.441 0-.8-.373-.8-.833 0-.46.359-.833.8-.833.442 0 .8.373.8.833 0 .46-.358.833-.8.833zm-3.039 0c-.442 0-.801-.373-.801-.833 0-.46.359-.833.801-.833.441 0 .8.373.8.833 0 .46-.359.833-.8.833zm-3.041 0c-.441 0-.8-.373-.8-.833 0-.46.359-.833.8-.833.442 0 .8.373.8.833 0 .46-.358.833-.8.833zm-3.04 0c-.442 0-.8-.373-.8-.833 0-.46.358-.833.8-.833.442 0 .8.373.8.833 0 .46-.358.833-.8.833zm-3.04 0c-.441 0-.8-.373-.8-.833 0-.46.359-.833.8-.833.442 0 .8.373.8.833 0 .46-.358.833-.8.833zm-3.04 0c-.441 0-.8-.373-.8-.833 0-.46.359-.833.8-.833.442 0 .8.373.8.833 0 .46-.358.833-.8.833zm-3.04 0c-.442 0-.8-.373-.8-.833 0-.46.358-.833.8-.833.442 0 .8.373.8.833 0 .46-.358.833-.8.833zM3.839 45.96c-.441 0-.8-.372-.8-.833 0-.46.359-.833.8-.833.442 0 .8.373.8.833 0 .461-.358.833-.8.833zm0-29.158c-.441 0-.8-.373-.8-.833 0-.46.359-.833.8-.833.442 0 .8.373.8.833 0 .46-.358.833-.8.833zm3.04 27.492c.442 0 .8.373.8.833 0 .461-.358.833-.8.833-.442 0-.8-.372-.8-.833 0-.46.358-.833.8-.833zm3.04 0c.442 0 .8.373.8.833 0 .461-.358.833-.8.833-.441 0-.8-.372-.8-.833 0-.46.359-.833.8-.833zm3.04 0c.442 0 .8.373.8.833 0 .461-.358.833-.8.833-.441 0-.8-.372-.8-.833 0-.46.359-.833.8-.833zm3.04 0c.442 0 .8.373.8.833 0 .461-.358.833-.8.833-.442 0-.8-.372-.8-.833 0-.46.358-.833.8-.833zm3.04 0c.442 0 .8.373.8.833 0 .461-.358.833-.8.833-.441 0-.8-.372-.8-.833 0-.46.359-.833.8-.833zm3.041 0c.441 0 .8.373.8.833 0 .461-.359.833-.8.833-.442 0-.801-.372-.801-.833 0-.46.359-.833.801-.833zm3.039 0c.442 0 .8.373.8.833 0 .461-.358.833-.8.833-.441 0-.8-.372-.8-.833 0-.46.359-.833.8-.833z" opacity=".8"/>
    <path fill="url(#a)" d="M29.599 50.126H2.4c-1.324 0-2.4-1.122-2.4-2.499V5.972c0-1.378 1.076-2.5 2.4-2.5h9.905l-1.022-2.126a.848.848 0 0 1 .358-1.117.785.785 0 0 1 1.073.372l1.38 2.871h3.905l2.16-2.998a.78.78 0 0 1 1.12-.166.853.853 0 0 1 .16 1.165l-1.44 1.999h9.6c1.324 0 2.401 1.122 2.401 2.5v41.655c0 1.377-1.077 2.499-2.401 2.499zm-15.2-40.822c0 .919.718 1.666 1.6 1.666.883 0 1.601-.747 1.601-1.666 0-.883-.666-1.601-1.501-1.655l.616 1.283a.85.85 0 0 1-.358 1.118.777.777 0 0 1-.357.087.796.796 0 0 1-.716-.461l-.619-1.288a1.706 1.706 0 0 0-.266.916zm16-3.332c0-.46-.358-.833-.8-.833H14.894l.437.909c.215-.049.439-.076.668-.076 1.765 0 3.2 1.494 3.2 3.332 0 1.838-1.435 3.332-3.2 3.332-1.764 0-3.2-1.494-3.2-3.332 0-1 .434-1.887 1.106-2.499l-.8-1.666H2.4c-.441 0-.8.373-.8.833v41.655c0 .459.359.833.8.833h27.199c.442 0 .8-.374.8-.833V5.972zM28.16 45.96c-.442 0-.8-.372-.8-.833 0-.46.358-.833.8-.833.441 0 .799.373.799.833 0 .461-.358.833-.799.833zm0-29.158c-.442 0-.8-.373-.8-.833 0-.46.358-.833.8-.833.441 0 .799.373.799.833 0 .46-.358.833-.799.833zm-3.184 18.899l-.668.924c-.016.025-.037.045-.055.069-.206.281-.425.55-.656.808-.043.047-.083.097-.125.142-.244.264-.499.516-.768.752-.029.026-.055.055-.084.08-.274.236-.56.456-.857.663-.153.106-.311.198-.467.296-.153.094-.304.19-.461.276a9.65 9.65 0 0 1-.538.27 9.48 9.48 0 0 1-1.543.583c-.172.049-.344.099-.52.139a9.241 9.241 0 0 1-.668.122c-.142.023-.284.052-.427.068a9.983 9.983 0 0 1-1.14.069 10.2 10.2 0 0 1-1.139-.068c-.144-.016-.285-.045-.427-.068-.225-.036-.449-.071-.669-.123-.176-.039-.347-.089-.52-.139a9.38 9.38 0 0 1-1.542-.582 9.647 9.647 0 0 1-.538-.27c-.157-.086-.308-.182-.46-.277-.157-.097-.316-.189-.468-.295a10.997 10.997 0 0 1-.857-.663c-.029-.026-.056-.055-.084-.08a10.481 10.481 0 0 1-.768-.752c-.044-.045-.084-.095-.125-.142-.232-.258-.45-.527-.656-.808-.018-.025-.038-.044-.056-.069l-.667-.924.061-.022A11.086 11.086 0 0 1 5.6 30.132c0-5.972 4.665-10.831 10.399-10.831 5.735 0 10.4 4.859 10.4 10.831 0 2.029-.548 3.923-1.484 5.547l.061.022zm-14.72 1.359c.038.036.074.073.113.107.125.11.259.208.391.31.107.083.21.172.32.25l.039.025a8.504 8.504 0 0 0 4.88 1.544c1.804 0 3.483-.57 4.879-1.543l.039-.025c.111-.078.214-.167.321-.25.131-.102.264-.2.39-.31.04-.034.075-.072.113-.106.189-.172.374-.347.55-.536l-4.645-1.612.773-.941c.511-.622.78-1.366.78-2.153v-3.354c0-1.838-1.435-3.333-3.2-3.333-1.764 0-3.2 1.495-3.2 3.333v3.354c0 .787.27 1.531.781 2.153l.772.94-4.645 1.613c.175.189.361.364.549.534zm5.743-16.092c-4.852 0-8.8 4.111-8.8 9.164 0 1.848.532 3.567 1.441 5.008l3.087-1.071a5.093 5.093 0 0 1-.528-2.249v-3.354c0-2.757 2.153-4.999 4.8-4.999 2.648 0 4.8 2.242 4.8 4.999v3.354c0 .78-.183 1.551-.528 2.249l3.089 1.071a9.377 9.377 0 0 0 1.439-5.008c0-5.053-3.947-9.164-8.8-9.164zm9.12-4.166c-.441 0-.8-.373-.8-.833 0-.46.359-.833.8-.833.442 0 .8.373.8.833 0 .46-.358.833-.8.833zm-3.039 0c-.442 0-.801-.373-.801-.833 0-.46.359-.833.801-.833.441 0 .8.373.8.833 0 .46-.359.833-.8.833zm-3.041 0c-.441 0-.8-.373-.8-.833 0-.46.359-.833.8-.833.442 0 .8.373.8.833 0 .46-.358.833-.8.833zm-3.04 0c-.442 0-.8-.373-.8-.833 0-.46.358-.833.8-.833.442 0 .8.373.8.833 0 .46-.358.833-.8.833zm-3.04 0c-.441 0-.8-.373-.8-.833 0-.46.359-.833.8-.833.442 0 .8.373.8.833 0 .46-.358.833-.8.833zm-3.04 0c-.441 0-.8-.373-.8-.833 0-.46.359-.833.8-.833.442 0 .8.373.8.833 0 .46-.358.833-.8.833zm-3.04 0c-.442 0-.8-.373-.8-.833 0-.46.358-.833.8-.833.442 0 .8.373.8.833 0 .46-.358.833-.8.833zM3.839 45.96c-.441 0-.8-.372-.8-.833 0-.46.359-.833.8-.833.442 0 .8.373.8.833 0 .461-.358.833-.8.833zm0-29.158c-.441 0-.8-.373-.8-.833 0-.46.359-.833.8-.833.442 0 .8.373.8.833 0 .46-.358.833-.8.833zm3.04 27.492c.442 0 .8.373.8.833 0 .461-.358.833-.8.833-.442 0-.8-.372-.8-.833 0-.46.358-.833.8-.833zm3.04 0c.442 0 .8.373.8.833 0 .461-.358.833-.8.833-.441 0-.8-.372-.8-.833 0-.46.359-.833.8-.833zm3.04 0c.442 0 .8.373.8.833 0 .461-.358.833-.8.833-.441 0-.8-.372-.8-.833 0-.46.359-.833.8-.833zm3.04 0c.442 0 .8.373.8.833 0 .461-.358.833-.8.833-.442 0-.8-.372-.8-.833 0-.46.358-.833.8-.833zm3.04 0c.442 0 .8.373.8.833 0 .461-.358.833-.8.833-.441 0-.8-.372-.8-.833 0-.46.359-.833.8-.833zm3.041 0c.441 0 .8.373.8.833 0 .461-.359.833-.8.833-.442 0-.801-.372-.801-.833 0-.46.359-.833.801-.833zm3.039 0c.442 0 .8.373.8.833 0 .461-.358.833-.8.833-.441 0-.8-.372-.8-.833 0-.46.359-.833.8-.833z"/>
</svg>
