<svg xmlns="http://www.w3.org/2000/svg" width="52" height="37">
    <defs>
        <linearGradient id="a" x1="0%" y1="0%" y2="0%">
            <stop offset="0%" stop-color="#F5989D"/>
            <stop offset="100%" stop-color="#ED145B"/>
        </linearGradient>
    </defs>
    <path fill="#009ADE" fill-rule="evenodd" d="M44.483 26.321v2.503h2.507c.277 0 .501.222.501.496a.498.498 0 0 1-.501.495h-6.016a.499.499 0 0 1-.502-.495.5.5 0 0 1 .502-.496h2.506v-2.503c-4.189-.257-7.52-3.698-7.52-7.902v-2.973c0-.274.224-.495.501-.495s.501.221.501.495v2.973c0 3.825 3.149 6.937 7.02 6.937 3.87 0 7.019-3.112 7.019-6.937v-2.973c0-.274.225-.495.501-.495.277 0 .502.221.502.495v2.973c0 4.204-3.331 7.645-7.521 7.902zm-.501-2.452c-3.041 0-5.515-2.445-5.515-5.45V6.528c0-3.006 2.474-5.451 5.515-5.451 3.041 0 5.515 2.445 5.515 5.451v11.891c0 3.005-2.474 5.45-5.515 5.45zM13.83 15.115c0-1.006.828-1.824 1.844-1.824 1.017 0 1.845.818 1.845 1.824a1.837 1.837 0 0 1-1.845 1.823 1.836 1.836 0 0 1-1.844-1.823zm7.377 0c0-1.006.828-1.824 1.844-1.824 1.018 0 1.844.818 1.844 1.824a1.835 1.835 0 0 1-1.844 1.823 1.836 1.836 0 0 1-1.844-1.823zm7.376 0c0-1.006.827-1.824 1.844-1.824 1.018 0 1.844.818 1.844 1.824a1.835 1.835 0 0 1-1.844 1.823 1.836 1.836 0 0 1-1.844-1.823zM7.106 36.732a.928.928 0 0 1-1.005.198.911.911 0 0 1-.569-.842v-6.384H2.766c-1.525 0-2.767-1.226-2.767-2.735V3.26c0-1.508 1.242-2.735 2.767-2.735h31.642v1.823H2.766a.918.918 0 0 0-.923.912v23.709a.92.92 0 0 0 .923.912h3.688c.51 0 .922.408.922.911v5.094l5.802-5.738a.928.928 0 0 1 .652-.267h20.578v1.823H14.212l-7.106 7.028z" opacity=".8"/>
    <path fill="url(#a)" d="M44.483 26.321v2.503h2.507c.277 0 .501.222.501.496a.498.498 0 0 1-.501.495h-6.016a.499.499 0 0 1-.502-.495.5.5 0 0 1 .502-.496h2.506v-2.503c-4.189-.257-7.52-3.698-7.52-7.902v-2.973c0-.274.224-.495.501-.495s.501.221.501.495v2.973c0 3.825 3.149 6.937 7.02 6.937 3.87 0 7.019-3.112 7.019-6.937v-2.973c0-.274.225-.495.501-.495.277 0 .502.221.502.495v2.973c0 4.204-3.331 7.645-7.521 7.902zm-.501-2.452c-3.041 0-5.515-2.445-5.515-5.45V6.528c0-3.006 2.474-5.451 5.515-5.451 3.041 0 5.515 2.445 5.515 5.451v11.891c0 3.005-2.474 5.45-5.515 5.45zM13.83 15.115c0-1.006.828-1.824 1.844-1.824 1.017 0 1.845.818 1.845 1.824a1.837 1.837 0 0 1-1.845 1.823 1.836 1.836 0 0 1-1.844-1.823zm7.377 0c0-1.006.828-1.824 1.844-1.824 1.018 0 1.844.818 1.844 1.824a1.835 1.835 0 0 1-1.844 1.823 1.836 1.836 0 0 1-1.844-1.823zm7.376 0c0-1.006.827-1.824 1.844-1.824 1.018 0 1.844.818 1.844 1.824a1.835 1.835 0 0 1-1.844 1.823 1.836 1.836 0 0 1-1.844-1.823zM7.106 36.732a.928.928 0 0 1-1.005.198.911.911 0 0 1-.569-.842v-6.384H2.766c-1.525 0-2.767-1.226-2.767-2.735V3.26c0-1.508 1.242-2.735 2.767-2.735h31.642v1.823H2.766a.918.918 0 0 0-.923.912v23.709a.92.92 0 0 0 .923.912h3.688c.51 0 .922.408.922.911v5.094l5.802-5.738a.928.928 0 0 1 .652-.267h20.578v1.823H14.212l-7.106 7.028z"/>
</svg>
