<svg xmlns="http://www.w3.org/2000/svg" width="50" height="39">
    <defs>
        <linearGradient id="a" x1="0%" y1="0%" y2="0%">
            <stop offset="0%" stop-color="#AC61B9"/>
            <stop offset="100%" stop-color="#9630A7"/>
        </linearGradient>
    </defs>
    <path fill="#FFF" fill-rule="evenodd" d="M50 25.692c0 4.98-8.81 7.77-17.053 8.77h-.169a1.001 1.001 0 0 1-.12-2c10.046-1.19 15.299-4.32 15.299-6.79 0-1.59-2.054-3.26-5.572-4.59.169 2.012.439 4.015.808 6 .082.476-.187.943-.638 1.11h-.339a.999.999 0 0 1-.299 0 59.79 59.79 0 0 0-16.942-2.1 59.774 59.774 0 0 0-16.813 2.21.945.945 0 0 1-.199 0H7.614a1.009 1.009 0 0 1-.27-.11l-.099-.08a.796.796 0 0 1-.259-.32.844.844 0 0 1-.08-.14v-.06a1.005 1.005 0 0 1 0-.19.955.955 0 0 1 0-.2v-.05c.37-1.985.639-3.988.807-6-3.548 1.33-5.621 3.01-5.621 4.6 0 3.19 8.422 6.8 20.77 7.19l-1.365-1.58a1.003 1.003 0 0 1 .102-1.454.995.995 0 0 1 1.402.144l2.821 3.27a.9.9 0 0 1 .06.11.964.964 0 0 1 .089.13v.07c.004.053.004.107 0 .16.004.05.004.1 0 .15.004.05.004.1 0 .15a.947.947 0 0 1-.1.08v.07a.964.964 0 0 1-.089.13.782.782 0 0 1-.06.11l-2.821 3.27a.993.993 0 0 1-1.361.097 1.002 1.002 0 0 1-.143-1.407l1.425-1.65C11.391 34.432 0 31.242 0 25.602c0-2.68 2.78-5.07 7.763-6.78.14-1.54.14-3.12.14-4.73a70.585 70.585 0 0 0-1.017-12.86.417.417 0 0 1 0-.05.955.955 0 0 1 0-.2.902.902 0 0 1 0-.18v-.06c.086-.177.204-.337.349-.47l.08-.06a.998.998 0 0 1 .299-.12.975.975 0 0 1 .349 0h.119a59.811 59.811 0 0 0 16.893 2.1 59.79 59.79 0 0 0 16.942-2.1.988.988 0 0 1 .429.03h.049a.81.81 0 0 1 .15.06h.11c.391.196.61.626.538 1.06a70.756 70.756 0 0 0-1.097 12.88c0 1.62.05 3.2.14 4.75 4.973 1.71 7.714 4.09 7.764 6.82zm-9.079-23.26a66.003 66.003 0 0 1-15.946 1.76 66.088 66.088 0 0 1-15.946-1.75c.59 3.881.876 7.803.857 11.73 0 1.89-.06 3.75-.18 5.55-.149 2.12-.368 4.2-.677 6.12a66.088 66.088 0 0 1 15.946-1.75 65.887 65.887 0 0 1 15.946 1.73 75.358 75.358 0 0 1-.818-11.73 75.571 75.571 0 0 1 .818-11.66zm-6.596 17.797a.795.795 0 0 1-.34.081H16.122c-.095 0-.18-.033-.269-.055a.985.985 0 0 1-.762-.16 1.003 1.003 0 0 1-.242-1.393l4.983-7.22a.994.994 0 0 1 1.635 0l1.803 2.61 3.499-5.13a.995.995 0 0 1 1.644 0l6.607 9.71.014.02c.305.46.182 1.08-.276 1.387a.973.973 0 0 1-.433.15zm-13.696-6.397l-3.346 4.856h2.761c.004-.005.004-.011.007-.016l1.994-2.84-1.416-2zm6.907-2.55l-5.077 7.406h10.153l-5.076-7.406zm-8.052-1.48a1.957 1.957 0 0 1-1.954-1.96c0-1.083.874-1.96 1.954-1.96 1.078 0 1.953.877 1.953 1.96 0 1.082-.875 1.96-1.953 1.96z" opacity=".8"/>
    <path fill="url(#a)" d="M50 25.692c0 4.98-8.81 7.77-17.053 8.77h-.169a1.001 1.001 0 0 1-.12-2c10.046-1.19 15.299-4.32 15.299-6.79 0-1.59-2.054-3.26-5.572-4.59.169 2.012.439 4.015.808 6 .082.476-.187.943-.638 1.11h-.339a.999.999 0 0 1-.299 0 59.79 59.79 0 0 0-16.942-2.1 59.774 59.774 0 0 0-16.813 2.21.945.945 0 0 1-.199 0H7.614a1.009 1.009 0 0 1-.27-.11l-.099-.08a.796.796 0 0 1-.259-.32.844.844 0 0 1-.08-.14v-.06a1.005 1.005 0 0 1 0-.19.955.955 0 0 1 0-.2v-.05c.37-1.985.639-3.988.807-6-3.548 1.33-5.621 3.01-5.621 4.6 0 3.19 8.422 6.8 20.77 7.19l-1.365-1.58a1.003 1.003 0 0 1 .102-1.454.995.995 0 0 1 1.402.144l2.821 3.27a.9.9 0 0 1 .06.11.964.964 0 0 1 .089.13v.07c.004.053.004.107 0 .16.004.05.004.1 0 .15.004.05.004.1 0 .15a.947.947 0 0 1-.1.08v.07a.964.964 0 0 1-.089.13.782.782 0 0 1-.06.11l-2.821 3.27a.993.993 0 0 1-1.361.097 1.002 1.002 0 0 1-.143-1.407l1.425-1.65C11.391 34.432 0 31.242 0 25.602c0-2.68 2.78-5.07 7.763-6.78.14-1.54.14-3.12.14-4.73a70.585 70.585 0 0 0-1.017-12.86.417.417 0 0 1 0-.05.955.955 0 0 1 0-.2.902.902 0 0 1 0-.18v-.06c.086-.177.204-.337.349-.47l.08-.06a.998.998 0 0 1 .299-.12.975.975 0 0 1 .349 0h.119a59.811 59.811 0 0 0 16.893 2.1 59.79 59.79 0 0 0 16.942-2.1.988.988 0 0 1 .429.03h.049a.81.81 0 0 1 .15.06h.11c.391.196.61.626.538 1.06a70.756 70.756 0 0 0-1.097 12.88c0 1.62.05 3.2.14 4.75 4.973 1.71 7.714 4.09 7.764 6.82zm-9.079-23.26a66.003 66.003 0 0 1-15.946 1.76 66.088 66.088 0 0 1-15.946-1.75c.59 3.881.876 7.803.857 11.73 0 1.89-.06 3.75-.18 5.55-.149 2.12-.368 4.2-.677 6.12a66.088 66.088 0 0 1 15.946-1.75 65.887 65.887 0 0 1 15.946 1.73 75.358 75.358 0 0 1-.818-11.73 75.571 75.571 0 0 1 .818-11.66zm-6.596 17.797a.795.795 0 0 1-.34.081H16.122c-.095 0-.18-.033-.269-.055a.985.985 0 0 1-.762-.16 1.003 1.003 0 0 1-.242-1.393l4.983-7.22a.994.994 0 0 1 1.635 0l1.803 2.61 3.499-5.13a.995.995 0 0 1 1.644 0l6.607 9.71.014.02c.305.46.182 1.08-.276 1.387a.973.973 0 0 1-.433.15zm-13.696-6.397l-3.346 4.856h2.761c.004-.005.004-.011.007-.016l1.994-2.84-1.416-2zm6.907-2.55l-5.077 7.406h10.153l-5.076-7.406zm-8.052-1.48a1.957 1.957 0 0 1-1.954-1.96c0-1.083.874-1.96 1.954-1.96 1.078 0 1.953.877 1.953 1.96 0 1.082-.875 1.96-1.953 1.96z"/>
</svg>
