<svg xmlns="http://www.w3.org/2000/svg" width="50" height="50">
    <defs>
        <linearGradient id="a" x1="0%" y1="0%" y2="0%">
            <stop offset="0%" stop-color="#AE81FF"/>
            <stop offset="100%" stop-color="#673AB7"/>
        </linearGradient>
    </defs>
    <path fill="#AB47BC" fill-rule="evenodd" d="M49.166 42.499h-1.461c-.047.116-.094.231-.146.347l1.034 1.034a.833.833 0 0 1 0 1.179l-3.534 3.535a.835.835 0 0 1-1.179 0l-1.034-1.035c-.115.052-.231.1-.346.145v1.462a.833.833 0 0 1-.834.833h-5a.832.832 0 0 1-.833-.833v-1.462a7.3 7.3 0 0 1-.347-.145l-1.034 1.035a.834.834 0 0 1-1.178 0l-3.535-3.535a.833.833 0 0 1 0-1.179l1.034-1.034a7.3 7.3 0 0 1-.145-.347h-1.462a.832.832 0 0 1-.833-.833H10.416A2.92 2.92 0 0 1 7.5 38.749a2.92 2.92 0 0 1 2.916-2.916h1.477l3.148-5.834H4.166A4.17 4.17 0 0 1 0 25.833V4.166A4.171 4.171 0 0 1 4.166-.001H42.5a4.171 4.171 0 0 1 4.166 4.167v21.667c0 1.596-.913 2.968-2.233 3.669a.82.82 0 0 1 .626.236l3.534 3.536a.832.832 0 0 1 0 1.178l-1.034 1.034c.052.116.099.231.146.347h1.461c.461 0 .834.372.834.833v5a.833.833 0 0 1-.834.833zm-37.5-5h-1.25c-.689 0-1.25.561-1.25 1.25s.561 1.25 1.25 1.25h17.917v-2.5H11.666zm2.12-1.667H30.628a7.3 7.3 0 0 1 .145-.347l-1.034-1.034a.832.832 0 0 1 0-1.178l1.355-1.356-1.306-1.918H16.935l-3.149 5.833zM44.999 4.166c0-1.378-1.121-2.5-2.499-2.5H4.166a2.503 2.503 0 0 0-2.5 2.5v17.5h43.333v-17.5zm0 21.667v-2.5H1.666v2.5c0 1.378 1.121 2.5 2.5 2.5H42.5a2.503 2.503 0 0 0 2.499-2.5zm-13.195 4.166l.489.719.719-.719h-1.208zm2.909 0l.773.773a8.49 8.49 0 0 1 .347-.144v-.629h-1.12zm7.787 0v.629c.115.045.231.093.346.144l1.023-1.023c-.432.152-.887.25-1.369.25zm5.833 7.5h-1.216a.835.835 0 0 1-.796-.583 7.609 7.609 0 0 0-.508-1.216.832.832 0 0 1 .15-.975l.863-.863-2.357-2.357-.862.864a.835.835 0 0 1-.976.15 7.488 7.488 0 0 0-1.216-.509.835.835 0 0 1-.583-.795v-1.216h-3.333v1.216a.835.835 0 0 1-.583.796 7.57 7.57 0 0 0-1.216.508.83.83 0 0 1-.975-.15l-.863-.863-2.357 2.357.864.863a.835.835 0 0 1 .15.975 7.488 7.488 0 0 0-.509 1.216.832.832 0 0 1-.795.582h-1.216v3.334h1.216c.365 0 .685.235.796.583.127.403.298.812.509 1.216a.834.834 0 0 1-.151.975l-.863.863 2.357 2.357.863-.864a.837.837 0 0 1 .975-.15c.403.211.813.382 1.216.509.347.11.582.431.582.795v1.216h3.333v-1.216c0-.364.237-.685.584-.796a7.57 7.57 0 0 0 1.216-.508.833.833 0 0 1 .975.15l.863.863 2.357-2.357-.864-.863a.835.835 0 0 1-.15-.975c.211-.404.382-.813.509-1.216a.833.833 0 0 1 .795-.582h1.216v-3.334zm-9.167 6.667c-2.757 0-5-2.243-5-5s2.243-5 5-5c2.758 0 5 2.243 5 5s-2.242 5-5 5zm0-8.333a3.337 3.337 0 0 0-3.333 3.333 3.336 3.336 0 0 0 3.333 3.333 3.337 3.337 0 0 0 3.334-3.333 3.337 3.337 0 0 0-3.334-3.333zM15.244 5.243l1.178 1.179-5.244 5.244 5.244 5.244-1.178 1.178-5.834-5.833a.832.832 0 0 1 0-1.178l5.834-5.834zM26.575 3.71l-7.498 14.996-1.491-.746 7.499-14.995 1.49.745zm2.347 1.533l5.834 5.834a.834.834 0 0 1 0 1.178l-5.834 5.833-1.179-1.178 5.245-5.244-5.245-5.244 1.179-1.179zm5.244 13.09h-1.667v-1.667h1.667v1.667zm3.333 0h-1.666v-1.667h1.666v1.667zm3.333 0h-1.666v-1.667h1.666v1.667zm-34.999 25a5.84 5.84 0 0 1 5.833 5.833.832.832 0 0 1-.833.833h-10A.832.832 0 0 1 0 49.166a5.84 5.84 0 0 1 5.833-5.833zm4.082 5a4.172 4.172 0 0 0-3.249-3.242v1.575H5v-1.575a4.174 4.174 0 0 0-3.25 3.242h8.165z"/>
    <path fill="url(#a)" d="M49.166 42.499h-1.461c-.047.116-.094.231-.146.347l1.034 1.034a.833.833 0 0 1 0 1.179l-3.534 3.535a.835.835 0 0 1-1.179 0l-1.034-1.035c-.115.052-.231.1-.346.145v1.462a.833.833 0 0 1-.834.833h-5a.832.832 0 0 1-.833-.833v-1.462a7.3 7.3 0 0 1-.347-.145l-1.034 1.035a.834.834 0 0 1-1.178 0l-3.535-3.535a.833.833 0 0 1 0-1.179l1.034-1.034a7.3 7.3 0 0 1-.145-.347h-1.462a.832.832 0 0 1-.833-.833H10.416A2.92 2.92 0 0 1 7.5 38.749a2.92 2.92 0 0 1 2.916-2.916h1.477l3.148-5.834H4.166A4.17 4.17 0 0 1 0 25.833V4.166A4.171 4.171 0 0 1 4.166-.001H42.5a4.171 4.171 0 0 1 4.166 4.167v21.667c0 1.596-.913 2.968-2.233 3.669a.82.82 0 0 1 .626.236l3.534 3.536a.832.832 0 0 1 0 1.178l-1.034 1.034c.052.116.099.231.146.347h1.461c.461 0 .834.372.834.833v5a.833.833 0 0 1-.834.833zm-37.5-5h-1.25c-.689 0-1.25.561-1.25 1.25s.561 1.25 1.25 1.25h17.917v-2.5H11.666zm2.12-1.667H30.628a7.3 7.3 0 0 1 .145-.347l-1.034-1.034a.832.832 0 0 1 0-1.178l1.355-1.356-1.306-1.918H16.935l-3.149 5.833zM44.999 4.166c0-1.378-1.121-2.5-2.499-2.5H4.166a2.503 2.503 0 0 0-2.5 2.5v17.5h43.333v-17.5zm0 21.667v-2.5H1.666v2.5c0 1.378 1.121 2.5 2.5 2.5H42.5a2.503 2.503 0 0 0 2.499-2.5zm-13.195 4.166l.489.719.719-.719h-1.208zm2.909 0l.773.773a8.49 8.49 0 0 1 .347-.144v-.629h-1.12zm7.787 0v.629c.115.045.231.093.346.144l1.023-1.023c-.432.152-.887.25-1.369.25zm5.833 7.5h-1.216a.835.835 0 0 1-.796-.583 7.609 7.609 0 0 0-.508-1.216.832.832 0 0 1 .15-.975l.863-.863-2.357-2.357-.862.864a.835.835 0 0 1-.976.15 7.488 7.488 0 0 0-1.216-.509.835.835 0 0 1-.583-.795v-1.216h-3.333v1.216a.835.835 0 0 1-.583.796 7.57 7.57 0 0 0-1.216.508.83.83 0 0 1-.975-.15l-.863-.863-2.357 2.357.864.863a.835.835 0 0 1 .15.975 7.488 7.488 0 0 0-.509 1.216.832.832 0 0 1-.795.582h-1.216v3.334h1.216c.365 0 .685.235.796.583.127.403.298.812.509 1.216a.834.834 0 0 1-.151.975l-.863.863 2.357 2.357.863-.864a.837.837 0 0 1 .975-.15c.403.211.813.382 1.216.509.347.11.582.431.582.795v1.216h3.333v-1.216c0-.364.237-.685.584-.796a7.57 7.57 0 0 0 1.216-.508.833.833 0 0 1 .975.15l.863.863 2.357-2.357-.864-.863a.835.835 0 0 1-.15-.975c.211-.404.382-.813.509-1.216a.833.833 0 0 1 .795-.582h1.216v-3.334zm-9.167 6.667c-2.757 0-5-2.243-5-5s2.243-5 5-5c2.758 0 5 2.243 5 5s-2.242 5-5 5zm0-8.333a3.337 3.337 0 0 0-3.333 3.333 3.336 3.336 0 0 0 3.333 3.333 3.337 3.337 0 0 0 3.334-3.333 3.337 3.337 0 0 0-3.334-3.333zM15.244 5.243l1.178 1.179-5.244 5.244 5.244 5.244-1.178 1.178-5.834-5.833a.832.832 0 0 1 0-1.178l5.834-5.834zM26.575 3.71l-7.498 14.996-1.491-.746 7.499-14.995 1.49.745zm2.347 1.533l5.834 5.834a.834.834 0 0 1 0 1.178l-5.834 5.833-1.179-1.178 5.245-5.244-5.245-5.244 1.179-1.179zm5.244 13.09h-1.667v-1.667h1.667v1.667zm3.333 0h-1.666v-1.667h1.666v1.667zm3.333 0h-1.666v-1.667h1.666v1.667zm-34.999 25a5.84 5.84 0 0 1 5.833 5.833.832.832 0 0 1-.833.833h-10A.832.832 0 0 1 0 49.166a5.84 5.84 0 0 1 5.833-5.833zm4.082 5a4.172 4.172 0 0 0-3.249-3.242v1.575H5v-1.575a4.174 4.174 0 0 0-3.25 3.242h8.165z"/>
</svg>
